<svg width="415" height="415" xmlns="http://www.w3.org/2000/svg" xmlns:xlink="http://www.w3.org/1999/xlink" xml:space="preserve" overflow="hidden"><g transform="matrix(1 0 0 1 0 -128)"><path d="M256.295 171.413 160.91 234.603C160.91 234.603 164.152 239.207 166.357 241.314 170.961 245.724 173.943 247.183 173.943 247.183L172.063 253.667 148.298 267.446C148.298 267.446 147.455 278.34 159.58 284.63 169.631 289.85 179.65 289.882 179.65 289.882L179.65 305.542C179.65 305.542 189.636 324.995 209.932 324.995 230.228 324.995 239.922 302.851 239.922 302.851L240.181 289.331C240.181 289.331 249.324 288.423 258.046 283.333 264.66 279.443 266.994 273.088 267.059 267.673 267.124 263.07 266.702 262.162 266.702 262.162L239.079 247.734C239.079 247.734 251.367 240.277 257.981 223.418 270.431 191.806 256.295 171.413 256.295 171.413Z" fill="#474C50"/><path d="M205.295 376.092 136.529 392.465C136.529 392.465 134.713 394.994 134.745 397.718 134.81 402.289 136.755 403.359 136.755 403.359L109.294 436.656C109.294 436.656 106.084 443.238 106.246 451.57 106.409 459.546 109.716 464.442 110.17 464.215L101.254 476.114 95.5797 478.545C95.5797 478.545 92.4996 483.538 92.8887 489.634 93.375 497.155 98.2383 505.164 117.205 513.95 136.82 523.061 158.024 531.231 207.208 531.231 256.392 531.231 293.677 521.504 309.078 510.708 324.478 499.911 325.71 490.509 325.97 486.456 326.167 483.442 325.551 480.43 324.186 477.735 324.057 477.508 323.765 477.054 323.765 477.054L311.607 463.923C311.607 463.923 314.525 456.693 314.168 449.009 313.714 439.315 308.818 432.312 308.818 432.312L280.157 407.444 280.417 400.96C280.417 400.96 280.903 398.885 279.963 395.416 279.152 392.433 278.504 390.779 277.823 389.742 275.813 386.662 273.349 386.986 273.349 386.986L205.295 376.092Z" fill="#474C50"/><path d="M160.812 234.603C160.812 234.603 145.607 215.831 152.091 186.1 158.575 156.369 185.291 137.208 215.573 141.52 245.855 145.832 258.013 174.493 258.013 174.493 258.013 174.493 257.138 210.222 224.424 227.535 191.711 244.848 160.812 234.603 160.812 234.603Z" fill="#5E6367"/><path d="M203.155 150.987C210.321 155.072 206.43 159.644 195.601 166.647 185.55 173.164 173.457 192.325 170.182 197.188 166.908 202.052 164.768 202.603 163.147 201.5 161.526 200.398 156.403 197.707 160.975 182.307 165.546 166.906 177.737 157.18 183.67 153.646 189.636 150.177 197.482 147.745 203.155 150.987Z" fill="#FFFFFE"/><path d="M173.943 247.183C173.943 247.183 189.214 257.363 205.684 257.558 228.931 257.785 239.079 247.734 239.079 247.734 239.079 247.734 250.07 246.599 257.916 250.684 264.789 254.251 266.702 262.227 266.702 262.227 266.702 262.227 259.44 281.129 206.527 279.702 153.582 278.275 148.298 267.479 148.298 267.479 148.298 267.479 146.904 256.358 156.338 250.911 164.249 246.307 173.943 247.183 173.943 247.183Z" fill="#5E6367"/><path d="M164.152 252.792C159.094 252.305 151.345 255.418 152.286 262.291 153.226 269.165 168.918 272.277 176.505 272.731 184.091 273.185 196.217 274.158 195.958 267.025 195.731 259.892 177.445 263.459 170.312 259.665 163.179 255.872 171.512 253.505 164.152 252.792Z" fill="#AEAEAF"/><path d="M179.617 305.575C179.617 305.575 189.311 309.789 209.478 309.789 229.644 309.789 239.889 302.884 239.889 302.884 239.889 302.884 239.857 325.709 249.357 348.728 258.856 371.748 265.73 382.901 265.73 382.901 265.73 382.901 271.922 382.479 274.289 384.392 276.656 386.305 278.958 392.109 278.958 392.109 278.18 393.179 261.288 408.838 210.548 407.736 156.436 406.569 136.529 392.433 136.529 392.433 136.529 392.433 139.706 387.148 143.337 385.948 147.714 384.489 150.535 384.879 150.535 384.879 150.535 384.879 166.778 365.328 173.425 346.102 180.039 326.876 179.617 305.575 179.617 305.575Z" fill="#5E6367"/><path d="M208.311 392.854C228.25 392.854 245.596 388.834 252.955 386.694 260.315 384.554 265.892 380.955 271.598 382.868 274.808 383.938 276.04 386.37 276.04 386.37 276.04 386.37 254.836 404.202 208.084 402.386 158.251 400.473 139.187 389.061 139.187 389.061 139.187 389.061 142.429 384.425 149.724 384.879 151.67 385.008 153.485 385.559 164.638 388.153 175.791 390.747 188.825 392.854 208.311 392.854Z" fill="#B0B0AF"/><path d="M136.755 403.327C136.755 403.327 169.599 416.328 208.311 416.846 260.088 417.527 280.449 400.96 280.449 400.96 280.449 400.96 292.607 412.113 297.568 417.333 302.529 422.553 308.818 432.312 308.818 432.312 308.818 432.312 287.128 468.138 207.857 467.425 128.553 466.711 109.294 436.656 109.294 436.656 109.294 436.656 113.477 425.698 122.133 416.62 127.45 411.011 136.755 403.327 136.755 403.327Z" fill="#5E6367"/><path d="M136.139 418.014C130.239 416.425 118.567 428.227 119.993 435.586 120.707 439.347 122.814 443.53 134.227 447.68 144.666 451.473 160.812 451.279 160.812 445.054 160.812 436.98 146.806 437.726 143.24 430.561 140.419 424.92 142.3 419.7 136.139 418.014Z" fill="#B0B0AF"/><path d="M110.17 464.182C110.17 464.182 105.501 467.36 101.87 470.926 97.298 475.433 95.5797 478.513 95.5797 478.513 95.5797 478.513 106.052 516.187 206.689 516.998 305.22 517.808 323.765 477.021 323.765 477.021 323.765 477.021 320.555 472.385 317.183 469.013 313.811 465.641 311.574 463.923 311.574 463.923 311.574 463.923 283.011 496.183 206.009 495.34 132.605 494.594 110.17 464.182 110.17 464.182Z" fill="#5E6367"/><path d="M105.112 474.557C102.421 477.573 102.518 483.83 110.461 489.05 118.956 494.627 132.638 502.57 152.253 506.234 172.225 509.962 193.04 508.827 191.743 502.148 190.868 497.577 173.554 502.7 142.851 490.541 124.824 483.409 119.248 479.486 115.584 476.892 113.217 475.173 109.002 470.213 105.112 474.557Z" fill="#B0B0AF"/><path d="M128.358 440.158C134.616 440.158 134.616 430.431 128.358 430.431 122.101 430.431 122.101 440.158 128.358 440.158Z" fill="#B0B0AF"/></g></svg>